<?xml version="1.0" encoding="UTF-8"?>
<!DOCTYPE svg PUBLIC "-//W3C//DTD SVG 1.1//EN" "http://www.w3.org/Graphics/SVG/1.1/DTD/svg11.dtd">
<svg xmlns="http://www.w3.org/2000/svg" version="1.1" width="500px" height="500px" style="shape-rendering:geometricPrecision; text-rendering:geometricPrecision; image-rendering:optimizeQuality; fill-rule:evenodd; clip-rule:evenodd" xmlns:xlink="http://www.w3.org/1999/xlink">
<g><path style="opacity:0.778" fill="#497fbf" d="M 168.5,102.5 C 167.5,102.5 166.5,102.5 165.5,102.5C 145.497,102.333 125.497,102.5 105.5,103C 104.756,104.039 103.756,104.539 102.5,104.5C 102.953,103.542 103.619,102.708 104.5,102C 126.004,101.171 147.337,101.337 168.5,102.5 Z"/></g>
<g><path style="opacity:0.603" fill="#5b90ce" d="M 327.5,102.5 C 338.662,101.833 349.995,101.5 361.5,101.5C 373.187,101.501 384.52,102.168 395.5,103.5C 372.908,102.511 350.242,102.178 327.5,102.5 Z"/></g>
<g><path style="opacity:1" fill="#0a6dc8" d="M 393.5,139.5 C 390.833,139.5 388.167,139.5 385.5,139.5C 385.948,143.524 386.614,147.524 387.5,151.5C 389.084,149.048 389.417,146.548 388.5,144C 389.899,143.405 391.232,143.572 392.5,144.5C 393.775,148.851 393.775,153.185 392.5,157.5C 394.629,160.347 395.629,163.68 395.5,167.5C 394.277,179.506 394.277,191.506 395.5,203.5C 394.503,210.14 393.837,216.807 393.5,223.5C 393.115,235.293 393.115,247.127 393.5,259C 393.333,260.167 393.167,261.333 393,262.5C 392.667,262.167 392.333,261.833 392,261.5C 391.199,246.807 391.366,232.141 392.5,217.5C 390.788,198.545 389.621,179.545 389,160.5C 387.989,159.663 386.822,159.33 385.5,159.5C 385.664,156.813 385.497,154.146 385,151.5C 384.829,159.677 384.329,167.677 383.5,175.5C 383.83,156.326 383.497,137.326 382.5,118.5C 381.119,116.726 381.452,115.226 383.5,114C 380.666,113.955 378.166,113.121 376,111.5C 375.506,113.134 375.34,114.801 375.5,116.5C 354.407,114.41 333.574,115.743 313,120.5C 311.907,118.396 309.574,117.062 306,116.5C 304.273,116.646 304.106,117.313 305.5,118.5C 303.577,119.308 301.577,119.808 299.5,120C 300.328,120.915 301.328,121.581 302.5,122C 298.768,121.773 295.268,121.273 292,120.5C 291.729,122.807 292.895,123.974 295.5,124C 288.223,125.065 282.056,127.232 277,130.5C 275.743,130.15 275.409,129.483 276,128.5C 283.384,126.431 283.217,125.097 275.5,124.5C 275.5,123.5 275.5,122.5 275.5,121.5C 273.712,121.215 272.045,121.548 270.5,122.5C 272.053,123.439 273.387,124.606 274.5,126C 274.167,126.5 273.833,127 273.5,127.5C 269.988,124.757 265.988,123.257 261.5,123C 263.803,120.866 266.469,119.366 269.5,118.5C 270.298,118.043 270.631,117.376 270.5,116.5C 270.833,116.5 271.167,116.5 271.5,116.5C 272.833,116.5 274.167,116.5 275.5,116.5C 275.5,117.833 275.5,119.167 275.5,120.5C 278.311,120.571 280.978,121.238 283.5,122.5C 286.357,121.925 288.024,120.258 288.5,117.5C 287.022,117.762 285.689,117.429 284.5,116.5C 285.5,116.167 286.5,115.833 287.5,115.5C 290.297,116.314 293.13,116.981 296,117.5C 299.312,116.669 302.479,115.336 305.5,113.5C 309.74,114.711 313.906,116.045 318,117.5C 319.188,116.437 319.688,115.103 319.5,113.5C 316.482,113.665 313.482,113.498 310.5,113C 310.165,111.497 310.165,110.164 310.5,109C 308.285,107.956 305.952,107.29 303.5,107C 306.7,106.899 309.7,106.232 312.5,105C 317.5,104.333 322.5,104.333 327.5,105C 333.033,105.903 338.533,106.736 344,107.5C 358.368,106.332 372.702,104.998 387,103.5C 388.728,103.454 390.228,103.954 391.5,105C 390.552,105.483 389.552,105.649 388.5,105.5C 388.384,108.91 390.05,110.244 393.5,109.5C 393.714,107.856 393.38,106.356 392.5,105C 394.549,104.53 395.883,105.364 396.5,107.5C 395.014,112.041 394.014,116.708 393.5,121.5C 394.629,125.915 394.629,130.082 393.5,134C 392.833,134.333 392.167,134.667 391.5,135C 393.107,136.049 393.773,137.549 393.5,139.5 Z"/></g>
<g><path style="opacity:1" fill="#4174ba" d="M 165.5,102.5 C 166.5,102.5 167.5,102.5 168.5,102.5C 185.725,103.727 202.391,107.06 218.5,112.5C 211.105,111.399 203.772,109.899 196.5,108C 193.183,107.502 189.85,107.335 186.5,107.5C 184.723,106.4 182.723,105.566 180.5,105C 176.167,104.667 171.833,104.333 167.5,104C 166.584,103.722 165.918,103.222 165.5,102.5 Z"/></g>
<g><path style="opacity:1" fill="#2470c6" d="M 186.5,107.5 C 189.85,107.335 193.183,107.502 196.5,108C 203.772,109.899 211.105,111.399 218.5,112.5C 228.516,115.278 237.516,119.945 245.5,126.5C 243.703,126.935 241.703,126.935 239.5,126.5C 239.321,128.606 238.321,130.272 236.5,131.5C 235.167,130.167 233.833,128.833 232.5,127.5C 231.201,129.758 230.201,132.092 229.5,134.5C 230.552,134.351 231.552,134.517 232.5,135C 231.112,135.889 231.278,136.389 233,136.5C 234.99,135.182 236.99,133.848 239,132.5C 239.167,133.167 239.333,133.833 239.5,134.5C 237.548,136.126 236.214,138.126 235.5,140.5C 218.55,129.72 199.883,123.387 179.5,121.5C 179.389,120.883 179.056,120.383 178.5,120C 175.183,119.502 171.85,119.335 168.5,119.5C 151.513,118.684 134.513,118.35 117.5,118.5C 130.797,116.681 144.463,115.848 158.5,116C 156.224,114.97 155.557,113.47 156.5,111.5C 160.492,111.488 164.492,112.155 168.5,113.5C 168.33,112.178 168.663,111.011 169.5,110C 160.833,109.667 152.167,109.333 143.5,109C 143.833,108.667 144.167,108.333 144.5,108C 155.092,107.53 165.426,106.696 175.5,105.5C 179.457,106.461 179.457,107.461 175.5,108.5C 177.686,109.221 179.853,109.887 182,110.5C 182.918,108.624 184.418,107.624 186.5,107.5 Z"/></g>
<g><path style="opacity:0.957" fill="#457cc2" d="M 382.5,118.5 C 382.832,181.336 382.499,244.002 381.5,306.5C 381.831,243.929 381.498,181.429 380.5,119C 350.035,116.861 320.035,119.527 290.5,127C 278.823,130.917 268.323,136.751 259,144.5C 258.5,161.497 258.333,178.497 258.5,195.5C 257.833,178.167 257.167,160.833 256.5,143.5C 257.183,141.824 258.517,141.157 260.5,141.5C 260.5,140.5 260.5,139.5 260.5,138.5C 263.187,138.659 265.52,137.825 267.5,136C 267.043,135.586 266.709,135.086 266.5,134.5C 268.813,133.727 271.146,133.06 273.5,132.5C 274.386,131.675 274.719,130.675 274.5,129.5C 272.61,129.703 271.11,129.037 270,127.5C 269.586,127.957 269.086,128.291 268.5,128.5C 267.751,126.988 266.584,125.988 265,125.5C 262.205,126.185 259.372,126.685 256.5,127C 259.044,128.099 259.044,129.265 256.5,130.5C 254.821,128.896 252.821,128.229 250.5,128.5C 256.416,123.251 263.083,119.251 270.5,116.5C 270.631,117.376 270.298,118.043 269.5,118.5C 266.469,119.366 263.803,120.866 261.5,123C 265.988,123.257 269.988,124.757 273.5,127.5C 273.833,127 274.167,126.5 274.5,126C 273.387,124.606 272.053,123.439 270.5,122.5C 272.045,121.548 273.712,121.215 275.5,121.5C 275.5,122.5 275.5,123.5 275.5,124.5C 283.217,125.097 283.384,126.431 276,128.5C 275.409,129.483 275.743,130.15 277,130.5C 282.056,127.232 288.223,125.065 295.5,124C 292.895,123.974 291.729,122.807 292,120.5C 295.268,121.273 298.768,121.773 302.5,122C 301.328,121.581 300.328,120.915 299.5,120C 301.577,119.808 303.577,119.308 305.5,118.5C 304.106,117.313 304.273,116.646 306,116.5C 309.574,117.062 311.907,118.396 313,120.5C 333.574,115.743 354.407,114.41 375.5,116.5C 375.34,114.801 375.506,113.134 376,111.5C 378.166,113.121 380.666,113.955 383.5,114C 381.452,115.226 381.119,116.726 382.5,118.5 Z"/></g>
<g><path style="opacity:0.843" fill="#739ecb" d="M 168.5,119.5 C 171.85,119.335 175.183,119.502 178.5,120C 179.056,120.383 179.389,120.883 179.5,121.5C 175.64,121.192 171.974,120.525 168.5,119.5 Z"/></g>
<g><path style="opacity:1" fill="#196dc3" d="M 327.5,102.5 C 350.242,102.178 372.908,102.511 395.5,103.5C 397.335,104.122 398.502,105.456 399,107.5C 399.5,115.493 399.666,123.493 399.5,131.5C 398.671,124.345 398.171,117.011 398,109.5C 397.198,117.549 397.365,125.549 398.5,133.5C 405.431,133.683 412.431,134.683 419.5,136.5C 410.666,137.034 402,138.034 393.5,139.5C 393.773,137.549 393.107,136.049 391.5,135C 392.167,134.667 392.833,134.333 393.5,134C 394.629,130.082 394.629,125.915 393.5,121.5C 394.014,116.708 395.014,112.041 396.5,107.5C 395.883,105.364 394.549,104.53 392.5,105C 393.38,106.356 393.714,107.856 393.5,109.5C 390.05,110.244 388.384,108.91 388.5,105.5C 389.552,105.649 390.552,105.483 391.5,105C 390.228,103.954 388.728,103.454 387,103.5C 372.702,104.998 358.368,106.332 344,107.5C 338.533,106.736 333.033,105.903 327.5,105C 322.5,104.333 317.5,104.333 312.5,105C 309.7,106.232 306.7,106.899 303.5,107C 305.952,107.29 308.285,107.956 310.5,109C 310.165,110.164 310.165,111.497 310.5,113C 313.482,113.498 316.482,113.665 319.5,113.5C 319.688,115.103 319.188,116.437 318,117.5C 313.906,116.045 309.74,114.711 305.5,113.5C 302.479,115.336 299.312,116.669 296,117.5C 293.13,116.981 290.297,116.314 287.5,115.5C 286.5,115.833 285.5,116.167 284.5,116.5C 285.689,117.429 287.022,117.762 288.5,117.5C 288.024,120.258 286.357,121.925 283.5,122.5C 280.978,121.238 278.311,120.571 275.5,120.5C 275.5,119.167 275.5,117.833 275.5,116.5C 274.167,116.5 272.833,116.5 271.5,116.5C 277.952,112.617 284.952,109.784 292.5,108C 304.001,105.225 315.667,103.392 327.5,102.5 Z"/></g>
<g><path style="opacity:1" fill="#0e6dc8" d="M 399.5,131.5 C 407.322,130.508 414.989,130.508 422.5,131.5C 423.75,134.006 424.416,136.673 424.5,139.5C 423.5,139.5 422.5,139.5 421.5,139.5C 420.403,178.259 420.403,216.925 421.5,255.5C 420.167,255.5 418.833,255.5 417.5,255.5C 417.5,260.833 417.5,266.167 417.5,271.5C 418.833,271.5 420.167,271.5 421.5,271.5C 421.5,276.833 421.5,282.167 421.5,287.5C 420.167,287.5 418.833,287.5 417.5,287.5C 417.198,292.854 416.864,298.02 416.5,303C 417.752,305.041 418.419,307.375 418.5,310C 418.47,312.424 418.137,314.757 417.5,317C 418.322,328.09 418.822,339.257 419,350.5C 419.171,345.467 419.671,340.467 420.5,335.5C 420.429,340.23 420.596,345.23 421,350.5C 422.011,351.337 423.178,351.67 424.5,351.5C 423.925,353.202 423.092,354.869 422,356.5C 421.824,359.882 421.324,363.215 420.5,366.5C 419.236,363.21 418.07,359.876 417,356.5C 415.301,357.406 413.467,357.739 411.5,357.5C 412.325,299.541 412.825,241.541 413,183.5C 413.182,180.774 413.682,178.107 414.5,175.5C 414.833,176 415.167,176.5 415.5,177C 415.732,196.523 415.398,216.023 414.5,235.5C 414.99,241.852 415.657,248.185 416.5,254.5C 417.667,216.504 417.833,178.504 417,140.5C 411.318,140.369 405.484,140.369 399.5,140.5C 399.36,142.124 400.027,143.29 401.5,144C 401.167,144.333 400.833,144.667 400.5,145C 398.241,144.561 395.908,144.061 393.5,143.5C 393.5,142.167 393.5,140.833 393.5,139.5C 402,138.034 410.666,137.034 419.5,136.5C 412.431,134.683 405.431,133.683 398.5,133.5C 397.365,125.549 397.198,117.549 398,109.5C 398.171,117.011 398.671,124.345 399.5,131.5 Z"/></g>
<g><path style="opacity:1" fill="#256dbe" d="M 393.5,139.5 C 393.5,140.833 393.5,142.167 393.5,143.5C 395.908,144.061 398.241,144.561 400.5,145C 400.833,144.667 401.167,144.333 401.5,144C 400.027,143.29 399.36,142.124 399.5,140.5C 405.484,140.369 411.318,140.369 417,140.5C 417.833,178.504 417.667,216.504 416.5,254.5C 415.657,248.185 414.99,241.852 414.5,235.5C 415.398,216.023 415.732,196.523 415.5,177C 415.167,176.5 414.833,176 414.5,175.5C 413.682,178.107 413.182,180.774 413,183.5C 412.825,241.541 412.325,299.541 411.5,357.5C 411.806,360.385 411.473,363.052 410.5,365.5C 410.5,293.167 410.5,220.833 410.5,148.5C 409.209,148.263 408.209,148.596 407.5,149.5C 404.833,149.5 402.167,149.5 399.5,149.5C 400.263,148.732 401.263,148.232 402.5,148C 401.135,146.318 399.635,146.151 398,147.5C 397.333,194.5 397.333,241.5 398,288.5C 398.169,272.328 398.669,256.328 399.5,240.5C 399.667,275.168 399.5,309.835 399,344.5C 397.149,350.012 393.316,352.345 387.5,351.5C 370.82,350.199 354.153,350.199 337.5,351.5C 339.927,349.442 342.593,347.609 345.5,346C 343.205,345.016 343.539,344.183 346.5,343.5C 349.167,344.5 349.167,345.5 346.5,346.5C 348.078,347.298 349.744,347.798 351.5,348C 361.041,348.044 370.541,348.21 380,348.5C 386.537,349.652 391.037,347.319 393.5,341.5C 394.833,341.5 396.167,341.5 397.5,341.5C 396.579,328.863 396.246,316.197 396.5,303.5C 396.542,286.225 396.376,268.892 396,251.5C 395.691,250.234 395.191,249.067 394.5,248C 395.721,244.554 395.721,241.054 394.5,237.5C 394.737,234.937 395.237,234.937 396,237.5C 396.167,236.5 396.333,235.5 396.5,234.5C 395.314,230.744 394.314,227.078 393.5,223.5C 393.837,216.807 394.503,210.14 395.5,203.5C 394.277,191.506 394.277,179.506 395.5,167.5C 395.629,163.68 394.629,160.347 392.5,157.5C 393.775,153.185 393.775,148.851 392.5,144.5C 391.232,143.572 389.899,143.405 388.5,144C 389.417,146.548 389.084,149.048 387.5,151.5C 386.614,147.524 385.948,143.524 385.5,139.5C 388.167,139.5 390.833,139.5 393.5,139.5 Z"/></g>
<g><path style="opacity:1" fill="#126dc6" d="M 345.5,176.5 C 344.596,175.791 344.263,174.791 344.5,173.5C 343.448,173.351 342.448,173.517 341.5,174C 343.31,178.033 341.976,180.2 337.5,180.5C 337.762,179.022 337.429,177.689 336.5,176.5C 336.167,177.333 335.833,178.167 335.5,179C 334.907,183.642 334.573,188.308 334.5,193C 335.58,202.479 336.08,211.979 336,221.5C 335.667,221.833 335.333,222.167 335,222.5C 333.362,202.641 332.196,202.641 331.5,222.5C 330.07,222.421 328.736,222.754 327.5,223.5C 326.718,216.799 325.718,210.132 324.5,203.5C 324.463,200.753 325.463,198.586 327.5,197C 326.643,196.311 325.977,195.478 325.5,194.5C 327.019,191.852 328.019,189.018 328.5,186C 327.692,184.294 326.359,183.461 324.5,183.5C 324.313,185.564 323.813,187.564 323,189.5C 322.79,187.942 322.29,186.609 321.5,185.5C 321.5,184.5 321.5,183.5 321.5,182.5C 320.167,182.5 318.833,182.5 317.5,182.5C 317.906,180.891 317.906,179.557 317.5,178.5C 315.132,180.223 312.466,180.89 309.5,180.5C 309.5,181.5 309.5,182.5 309.5,183.5C 307.742,183.123 306.075,182.456 304.5,181.5C 302.694,182.859 301.194,182.525 300,180.5C 299.727,178.899 299.227,177.399 298.5,176C 299.756,175.583 300.423,174.75 300.5,173.5C 301.436,172.026 302.77,171.026 304.5,170.5C 305.496,170.586 306.329,170.252 307,169.5C 307.499,164.845 307.666,160.179 307.5,155.5C 310.986,146 317.819,141 328,140.5C 341.623,141.79 348.789,149.29 349.5,163C 349.308,168.013 347.975,172.513 345.5,176.5 Z"/></g>
<g><path style="opacity:1" fill="#0a6dc8" d="M 86.5,151.5 C 86.6667,197.168 86.5,242.835 86,288.5C 85.6667,266.5 85.3333,244.5 85,222.5C 84.5,223 84,223.5 83.5,224C 84.0352,270.466 84.0352,316.966 83.5,363.5C 83.4435,364.737 82.9435,365.737 82,366.5C 81,365.167 80,365.167 79,366.5C 78.5065,364.866 78.3398,363.199 78.5,361.5C 79.5,361.5 80.5,361.5 81.5,361.5C 81.6621,359.473 81.4955,357.473 81,355.5C 80.3333,354.167 79.6667,354.167 79,355.5C 77.6373,362.525 77.1373,369.525 77.5,376.5C 75.2167,375.924 74.8834,376.924 76.5,379.5C 75.2502,379.423 74.4169,378.756 74,377.5C 72.8932,373.375 73.5599,369.709 76,366.5C 76.1667,361.333 76.3333,356.167 76.5,351C 74.579,335.357 73.9124,319.691 74.5,304C 74.4434,301.105 75.61,298.938 78,297.5C 78.9907,298.43 79.4907,299.596 79.5,301C 79.3486,306.77 79.1819,312.603 79,318.5C 78.8371,320.676 78.0037,322.509 76.5,324C 77.1667,324.333 77.8333,324.667 78.5,325C 75.8901,328.13 75.8901,331.296 78.5,334.5C 77.4557,336.768 77.289,339.101 78,341.5C 78.3333,340.5 78.6667,339.5 79,338.5C 79.3333,342.833 79.6667,347.167 80,351.5C 80.3333,351.167 80.6667,350.833 81,350.5C 81.8333,287.164 81.6666,223.831 80.5,160.5C 79.7864,163.027 79.1197,165.527 78.5,168C 78.9095,172.076 78.9095,176.243 78.5,180.5C 77.8333,173.167 77.1667,165.833 76.5,158.5C 75.914,158.709 75.414,159.043 75,159.5C 74.0253,151.707 74.5253,144.04 76.5,136.5C 77.6662,143.254 78.8328,149.921 80,156.5C 81.7858,152.417 81.9525,148.25 80.5,144C 81.0682,142.128 81.7349,140.295 82.5,138.5C 89.3192,138.243 96.1525,137.243 103,135.5C 105.609,135.375 107.942,136.042 110,137.5C 110.5,137.167 111,136.833 111.5,136.5C 110.01,135.174 108.676,133.674 107.5,132C 104.043,131.556 100.71,132.056 97.5,133.5C 95.701,133.423 94.0344,132.923 92.5,132C 95.3102,131.218 97.9768,130.384 100.5,129.5C 102.147,122.211 103.147,114.544 103.5,106.5C 106.168,103.339 107.501,103.839 107.5,108C 105.659,114.06 105.159,120.227 106,126.5C 107.675,127.595 108.842,129.095 109.5,131C 110.449,131.617 111.282,131.451 112,130.5C 112.89,135.192 113.724,140.192 114.5,145.5C 114.167,146.167 113.833,146.833 113.5,147.5C 111.821,145.896 109.821,145.229 107.5,145.5C 107.351,144.448 107.517,143.448 108,142.5C 108.893,143.711 109.726,143.711 110.5,142.5C 107.658,141.996 106.325,140.329 106.5,137.5C 99.8647,139.334 93.1981,140.834 86.5,142C 85.6721,142.915 84.6721,143.581 83.5,144C 84.3236,146.55 85.3236,149.05 86.5,151.5 Z"/></g>
<g><path style="opacity:1" fill="#176dc5" d="M 165.5,102.5 C 165.918,103.222 166.584,103.722 167.5,104C 171.833,104.333 176.167,104.667 180.5,105C 182.723,105.566 184.723,106.4 186.5,107.5C 184.418,107.624 182.918,108.624 182,110.5C 179.853,109.887 177.686,109.221 175.5,108.5C 179.457,107.461 179.457,106.461 175.5,105.5C 165.426,106.696 155.092,107.53 144.5,108C 144.167,108.333 143.833,108.667 143.5,109C 152.167,109.333 160.833,109.667 169.5,110C 168.663,111.011 168.33,112.178 168.5,113.5C 164.492,112.155 160.492,111.488 156.5,111.5C 155.557,113.47 156.224,114.97 158.5,116C 144.463,115.848 130.797,116.681 117.5,118.5C 117.5,123.5 117.5,128.5 117.5,133.5C 116.674,137.982 116.174,142.649 116,147.5C 115.218,192.006 115.384,236.506 116.5,281C 115.445,288.995 114.445,296.995 113.5,305C 114.126,305.75 114.626,306.584 115,307.5C 115.831,314.146 116.331,320.813 116.5,327.5C 116.5,329.833 116.5,332.167 116.5,334.5C 130.5,334.5 144.5,334.5 158.5,334.5C 188.029,335.797 215.696,343.463 241.5,357.5C 241.191,360.346 239.525,361.846 236.5,362C 235.929,363.205 235.262,364.372 234.5,365.5C 233.914,365.291 233.414,364.957 233,364.5C 232.092,366.439 230.592,367.439 228.5,367.5C 225.509,364.611 221.842,363.278 217.5,363.5C 217.36,365.124 218.027,366.29 219.5,367C 219.167,367.333 218.833,367.667 218.5,368C 220.248,368.08 221.915,368.913 223.5,370.5C 220.833,370.833 218.167,371.167 215.5,371.5C 209.588,369.978 203.421,368.978 197,368.5C 193.397,368.55 190.064,369.217 187,370.5C 182.923,369.202 178.589,368.536 174,368.5C 169.833,368.833 165.667,369.167 161.5,369.5C 160.975,370.192 160.308,370.692 159.5,371C 149.632,371.203 139.799,371.703 130,372.5C 127.625,372.182 126.458,370.849 126.5,368.5C 113.788,369.146 101.455,368.48 89.5,366.5C 110.673,366.831 131.673,366.497 152.5,365.5C 173.89,365.368 195.223,365.534 216.5,366C 210.928,362.988 205.261,360.488 199.5,358.5C 197.243,357.599 195.743,355.932 195,353.5C 192.599,354.602 190.099,354.769 187.5,354C 186.939,352.324 185.939,350.991 184.5,350C 176.689,351.215 168.689,351.715 160.5,351.5C 143.801,349.985 127.134,350.318 110.5,352.5C 105.422,352.342 102.089,350.009 100.5,345.5C 100.17,281.792 100.504,218.125 101.5,154.5C 100.933,152.018 100.266,149.684 99.5,147.5C 96.1667,147.5 92.8333,147.5 89.5,147.5C 89.1667,147.5 88.8333,147.5 88.5,147.5C 86.8235,148.183 86.1568,149.517 86.5,151.5C 85.3236,149.05 84.3236,146.55 83.5,144C 84.6721,143.581 85.6721,142.915 86.5,142C 93.1981,140.834 99.8647,139.334 106.5,137.5C 106.325,140.329 107.658,141.996 110.5,142.5C 109.726,143.711 108.893,143.711 108,142.5C 107.517,143.448 107.351,144.448 107.5,145.5C 109.821,145.229 111.821,145.896 113.5,147.5C 113.833,146.833 114.167,146.167 114.5,145.5C 113.724,140.192 112.89,135.192 112,130.5C 111.282,131.451 110.449,131.617 109.5,131C 108.842,129.095 107.675,127.595 106,126.5C 105.159,120.227 105.659,114.06 107.5,108C 107.501,103.839 106.168,103.339 103.5,106.5C 103.147,114.544 102.147,122.211 100.5,129.5C 100.5,124.5 100.5,119.5 100.5,114.5C 100.336,111.813 100.503,109.146 101,106.5C 101.278,105.584 101.778,104.918 102.5,104.5C 103.756,104.539 104.756,104.039 105.5,103C 125.497,102.5 145.497,102.333 165.5,102.5 Z"/></g>
<g><path style="opacity:0.851" fill="#0a4f9d" d="M 256.5,143.5 C 257.167,160.833 257.833,178.167 258.5,195.5C 258.5,196.167 258.5,196.833 258.5,197.5C 257.732,198.263 257.232,199.263 257,200.5C 256.5,181.503 256.333,162.503 256.5,143.5 Z"/></g>
<g><path style="opacity:0.812" fill="#3b73b6" d="M 235.5,140.5 C 238.509,140.423 240.676,141.756 242,144.5C 242.499,149.823 242.666,155.156 242.5,160.5C 242.167,160.5 241.833,160.5 241.5,160.5C 241.827,155.456 241.494,150.456 240.5,145.5C 238.785,143.785 237.119,142.119 235.5,140.5 Z"/></g>
<g><path style="opacity:1" fill="#2370c6" d="M 192.5,186.5 C 192.751,188.17 193.418,189.67 194.5,191C 193.456,194.352 193.622,197.852 195,201.5C 196.706,200.692 197.539,199.359 197.5,197.5C 199.288,197.215 200.955,197.548 202.5,198.5C 201.579,200.756 199.912,201.756 197.5,201.5C 197.5,202.5 197.5,203.5 197.5,204.5C 195.176,204.338 193.509,203.172 192.5,201C 190.482,200.495 188.482,199.995 186.5,199.5C 183.707,197.546 181.041,195.379 178.5,193C 176.182,192.658 174.015,193.158 172,194.5C 171.5,218.164 171.333,241.831 171.5,265.5C 167.715,263.934 165.715,265.267 165.5,269.5C 167.5,269.5 169.5,269.5 171.5,269.5C 171.5,270.5 171.5,271.5 171.5,272.5C 167.465,273.69 164.965,272.023 164,267.5C 163.564,270.284 162.064,271.45 159.5,271C 159.833,270.667 160.167,270.333 160.5,270C 159.552,269.517 158.552,269.351 157.5,269.5C 157.5,268.5 157.5,267.5 157.5,266.5C 156.5,266.5 155.5,266.5 154.5,266.5C 155.209,265.596 156.209,265.263 157.5,265.5C 157.5,240.833 157.5,216.167 157.5,191.5C 157.5,190.5 157.5,189.5 157.5,188.5C 155.692,188.509 154.025,188.009 152.5,187C 150.311,183.751 148.311,180.584 146.5,177.5C 146.5,176.833 146.5,176.167 146.5,175.5C 146.335,172.482 146.502,169.482 147,166.5C 147.414,166.043 147.914,165.709 148.5,165.5C 149.187,167.274 150.02,168.941 151,170.5C 151.663,167.131 151.496,163.797 150.5,160.5C 150.719,159.062 151.219,157.729 152,156.5C 155.856,154.573 159.356,152.24 162.5,149.5C 174.635,148.156 183.135,153.156 188,164.5C 188.759,169.707 188.592,174.874 187.5,180C 188.985,182.317 190.652,184.484 192.5,186.5 Z"/></g>
<g><path style="opacity:1" fill="#2863b6" d="M 399.5,149.5 C 399.5,179.833 399.5,210.167 399.5,240.5C 398.669,256.328 398.169,272.328 398,288.5C 397.333,241.5 397.333,194.5 398,147.5C 399.635,146.151 401.135,146.318 402.5,148C 401.263,148.232 400.263,148.732 399.5,149.5 Z"/></g>
<g><path style="opacity:1" fill="#2f73c5" d="M 100.5,114.5 C 100.5,119.5 100.5,124.5 100.5,129.5C 97.9768,130.384 95.3102,131.218 92.5,132C 94.0344,132.923 95.701,133.423 97.5,133.5C 100.71,132.056 104.043,131.556 107.5,132C 108.676,133.674 110.01,135.174 111.5,136.5C 111,136.833 110.5,137.167 110,137.5C 107.942,136.042 105.609,135.375 103,135.5C 96.1525,137.243 89.3192,138.243 82.5,138.5C 81.7349,140.295 81.0682,142.128 80.5,144C 81.9525,148.25 81.7858,152.417 80,156.5C 78.8328,149.921 77.6662,143.254 76.5,136.5C 74.5253,144.04 74.0253,151.707 75,159.5C 75.414,159.043 75.914,158.709 76.5,158.5C 77.1667,165.833 77.8333,173.167 78.5,180.5C 78.9095,176.243 78.9095,172.076 78.5,168C 79.1197,165.527 79.7864,163.027 80.5,160.5C 81.6666,223.831 81.8333,287.164 81,350.5C 80.6667,350.833 80.3333,351.167 80,351.5C 79.6667,347.167 79.3333,342.833 79,338.5C 78.6667,339.5 78.3333,340.5 78,341.5C 77.289,339.101 77.4557,336.768 78.5,334.5C 75.8901,331.296 75.8901,328.13 78.5,325C 77.8333,324.667 77.1667,324.333 76.5,324C 78.0037,322.509 78.8371,320.676 79,318.5C 79.1819,312.603 79.3486,306.77 79.5,301C 79.4907,299.596 78.9907,298.43 78,297.5C 75.61,298.938 74.4434,301.105 74.5,304C 73.9124,319.691 74.579,335.357 76.5,351C 76.3333,356.167 76.1667,361.333 76,366.5C 73.5599,369.709 72.8932,373.375 74,377.5C 74.4169,378.756 75.2502,379.423 76.5,379.5C 124.642,380.444 172.975,380.777 221.5,380.5C 222.833,380.5 223.5,381.167 223.5,382.5C 223.167,382.5 222.833,382.5 222.5,382.5C 174.185,383.643 125.851,383.809 77.5,383C 75.0607,382.226 73.2273,380.726 72,378.5C 71.5001,367.172 71.3335,355.838 71.5,344.5C 72.1766,321.931 72.8432,299.265 73.5,276.5C 73.5584,229.353 73.8918,182.353 74.5,135.5C 77.512,133.548 80.512,131.882 83.5,130.5C 88.787,129.658 94.1203,129.324 99.5,129.5C 99.1795,124.305 99.5128,119.305 100.5,114.5 Z"/></g>
<g><path style="opacity:0.424" fill="#75a0d0" d="M 307.5,155.5 C 307.666,160.179 307.499,164.845 307,169.5C 306.329,170.252 305.496,170.586 304.5,170.5C 304.783,169.711 305.283,169.044 306,168.5C 306.175,163.981 306.675,159.647 307.5,155.5 Z"/></g>
<g><path style="opacity:1" fill="#3872ba" d="M 162.5,149.5 C 159.356,152.24 155.856,154.573 152,156.5C 151.219,157.729 150.719,159.062 150.5,160.5C 151.496,163.797 151.663,167.131 151,170.5C 150.02,168.941 149.187,167.274 148.5,165.5C 147.914,165.709 147.414,166.043 147,166.5C 146.502,169.482 146.335,172.482 146.5,175.5C 145.523,172.713 145.19,169.713 145.5,166.5C 147.5,157.167 153.167,151.5 162.5,149.5 Z"/></g>
<g><path style="opacity:0.165" fill="#cae5fa" d="M 145.5,166.5 C 145.19,169.713 145.523,172.713 146.5,175.5C 146.5,176.167 146.5,176.833 146.5,177.5C 146.5,177.833 146.5,178.167 146.5,178.5C 144.983,176.538 144.316,174.205 144.5,171.5C 144.507,169.631 144.84,167.964 145.5,166.5 Z"/></g>
<g><path style="opacity:1" fill="#0f6bc6" d="M 382.5,118.5 C 383.497,137.326 383.83,156.326 383.5,175.5C 383.369,176.239 383.536,176.906 384,177.5C 384.741,176.359 385.575,176.359 386.5,177.5C 386.833,179.833 387.167,182.167 387.5,184.5C 386.312,213.158 385.812,241.825 386,270.5C 387.121,275.689 387.955,281.022 388.5,286.5C 389.167,281.5 389.833,276.5 390.5,271.5C 390.833,274.167 391.167,276.833 391.5,279.5C 390.226,286.133 389.726,292.8 390,299.5C 391.324,302.244 393.491,303.577 396.5,303.5C 396.246,316.197 396.579,328.863 397.5,341.5C 396.167,341.5 394.833,341.5 393.5,341.5C 391.037,347.319 386.537,349.652 380,348.5C 370.541,348.21 361.041,348.044 351.5,348C 349.744,347.798 348.078,347.298 346.5,346.5C 349.167,345.5 349.167,344.5 346.5,343.5C 343.539,344.183 343.205,345.016 345.5,346C 342.593,347.609 339.927,349.442 337.5,351.5C 337.167,351.5 336.833,351.5 336.5,351.5C 330.801,351.093 325.134,350.427 319.5,349.5C 319.333,346.043 318.333,345.71 316.5,348.5C 318.131,350.297 320.131,351.464 322.5,352C 318.775,352.76 315.108,352.593 311.5,351.5C 310.289,352.274 310.289,353.107 311.5,354C 307.463,354.607 303.463,354.44 299.5,353.5C 299.383,351.516 300.05,349.85 301.5,348.5C 299.167,347.833 296.833,347.167 294.5,346.5C 296.624,345.851 298.624,345.017 300.5,344C 299.5,343.667 298.5,343.333 297.5,343C 304.326,343.085 310.992,343.918 317.5,345.5C 317.756,343.208 317.423,341.041 316.5,339C 321.78,339.713 327.113,340.546 332.5,341.5C 334.319,341.658 335.652,340.991 336.5,339.5C 333.633,338.226 330.633,337.393 327.5,337C 345.861,337.156 363.861,336.323 381.5,334.5C 381.5,332.833 381.5,331.167 381.5,329.5C 381.306,321.585 381.306,313.919 381.5,306.5C 382.499,244.002 382.832,181.336 382.5,118.5 Z"/></g>
<g><path style="opacity:0.996" fill="#4a76b4" d="M 146.5,177.5 C 148.311,180.584 150.311,183.751 152.5,187C 154.025,188.009 155.692,188.509 157.5,188.5C 157.5,189.5 157.5,190.5 157.5,191.5C 151.736,188.989 148.069,184.656 146.5,178.5C 146.5,178.167 146.5,177.833 146.5,177.5 Z"/></g>
<g><path style="opacity:1" fill="#5282c3" d="M 321.5,185.5 C 321.5,187.167 321.5,188.833 321.5,190.5C 320.698,189.048 320.198,187.382 320,185.5C 317.74,184.327 315.574,182.994 313.5,181.5C 312.14,182.18 310.807,182.847 309.5,183.5C 309.5,182.5 309.5,181.5 309.5,180.5C 312.466,180.89 315.132,180.223 317.5,178.5C 317.906,179.557 317.906,180.891 317.5,182.5C 318.833,182.5 320.167,182.5 321.5,182.5C 321.5,183.5 321.5,184.5 321.5,185.5 Z"/></g>
<g><path style="opacity:1" fill="#3975c3" d="M 300.5,173.5 C 300.423,174.75 299.756,175.583 298.5,176C 299.227,177.399 299.727,178.899 300,180.5C 301.194,182.525 302.694,182.859 304.5,181.5C 306.075,182.456 307.742,183.123 309.5,183.5C 306.872,185.488 304.205,187.488 301.5,189.5C 298.573,187.971 296.906,188.971 296.5,192.5C 292.465,195.857 288.132,198.857 283.5,201.5C 283.67,200.178 283.337,199.011 282.5,198C 284.134,197.506 285.801,197.34 287.5,197.5C 287.281,193.473 288.448,192.806 291,195.5C 291.49,194.207 291.657,192.873 291.5,191.5C 292.552,191.649 293.552,191.483 294.5,191C 293.549,190.282 293.383,189.449 294,188.5C 295.973,187.36 297.807,186.027 299.5,184.5C 298.243,182.321 296.743,180.321 295,178.5C 293.745,179.211 292.579,180.044 291.5,181C 295.668,184.342 295.168,185.176 290,183.5C 287.73,184.86 285.23,185.527 282.5,185.5C 288.217,181.124 294.217,177.124 300.5,173.5 Z"/></g>
<g><path style="opacity:1" fill="#85a1d2" d="M 301.5,189.5 C 300.101,190.89 298.434,191.89 296.5,192.5C 296.906,188.971 298.573,187.971 301.5,189.5 Z"/></g>
<g><path style="opacity:1" fill="#5987c0" d="M 117.5,133.5 C 117.5,198.167 117.5,262.833 117.5,327.5C 117.167,327.5 116.833,327.5 116.5,327.5C 116.331,320.813 115.831,314.146 115,307.5C 114.626,306.584 114.126,305.75 113.5,305C 114.445,296.995 115.445,288.995 116.5,281C 115.384,236.506 115.218,192.006 116,147.5C 116.174,142.649 116.674,137.982 117.5,133.5 Z"/></g>
<g><path style="opacity:1" fill="#096dc7" d="M 393.5,223.5 C 394.314,227.078 395.314,230.744 396.5,234.5C 396.333,235.5 396.167,236.5 396,237.5C 395.237,234.937 394.737,234.937 394.5,237.5C 395.721,241.054 395.721,244.554 394.5,248C 395.191,249.067 395.691,250.234 396,251.5C 396.376,268.892 396.542,286.225 396.5,303.5C 393.491,303.577 391.324,302.244 390,299.5C 389.726,292.8 390.226,286.133 391.5,279.5C 391.167,276.833 390.833,274.167 390.5,271.5C 389.833,276.5 389.167,281.5 388.5,286.5C 387.955,281.022 387.121,275.689 386,270.5C 385.812,241.825 386.312,213.158 387.5,184.5C 387.167,182.167 386.833,179.833 386.5,177.5C 385.575,176.359 384.741,176.359 384,177.5C 383.536,176.906 383.369,176.239 383.5,175.5C 384.329,167.677 384.829,159.677 385,151.5C 385.497,154.146 385.664,156.813 385.5,159.5C 386.822,159.33 387.989,159.663 389,160.5C 389.621,179.545 390.788,198.545 392.5,217.5C 391.366,232.141 391.199,246.807 392,261.5C 392.333,261.833 392.667,262.167 393,262.5C 393.167,261.333 393.333,260.167 393.5,259C 393.115,247.127 393.115,235.293 393.5,223.5 Z"/></g>
<g><path style="opacity:1" fill="#3876c3" d="M 345.5,176.5 C 343.511,180.148 340.511,182.814 336.5,184.5C 336.167,186.333 335.833,188.167 335.5,190C 338.329,209.776 340.663,229.61 342.5,249.5C 344.553,249.402 346.22,250.069 347.5,251.5C 344.686,252.579 342.519,251.913 341,249.5C 340.503,246.854 340.336,244.187 340.5,241.5C 336.412,240.219 332.745,241.052 329.5,244C 332.432,246.145 334.932,245.645 337,242.5C 336.819,246.04 334.986,248.54 331.5,250C 331.833,250.333 332.167,250.667 332.5,251C 330.866,251.494 329.199,251.66 327.5,251.5C 328.165,254.888 327.165,255.888 324.5,254.5C 322.484,255.178 320.484,255.844 318.5,256.5C 321.839,253.494 325.172,250.494 328.5,247.5C 325.68,228.555 323.346,209.555 321.5,190.5C 321.5,188.833 321.5,187.167 321.5,185.5C 322.29,186.609 322.79,187.942 323,189.5C 323.813,187.564 324.313,185.564 324.5,183.5C 326.359,183.461 327.692,184.294 328.5,186C 328.019,189.018 327.019,191.852 325.5,194.5C 325.977,195.478 326.643,196.311 327.5,197C 325.463,198.586 324.463,200.753 324.5,203.5C 325.718,210.132 326.718,216.799 327.5,223.5C 328.736,222.754 330.07,222.421 331.5,222.5C 332.196,202.641 333.362,202.641 335,222.5C 335.333,222.167 335.667,221.833 336,221.5C 336.08,211.979 335.58,202.479 334.5,193C 334.573,188.308 334.907,183.642 335.5,179C 335.833,178.167 336.167,177.333 336.5,176.5C 337.429,177.689 337.762,179.022 337.5,180.5C 341.976,180.2 343.31,178.033 341.5,174C 342.448,173.517 343.448,173.351 344.5,173.5C 344.263,174.791 344.596,175.791 345.5,176.5 Z"/></g>
<g><path style="opacity:0.973" fill="#698cc1" d="M 276.5,206.5 C 274.104,208.555 271.438,210.221 268.5,211.5C 268.5,210.5 268.5,209.5 268.5,208.5C 271.004,207.361 273.67,206.694 276.5,206.5 Z"/></g>
<g><path style="opacity:1" fill="#126dc7" d="M 256.5,143.5 C 256.333,162.503 256.5,181.503 257,200.5C 257.232,199.263 257.732,198.263 258.5,197.5C 258.281,198.675 258.614,199.675 259.5,200.5C 266.233,196.142 272.9,191.809 279.5,187.5C 281.027,187.573 282.027,186.906 282.5,185.5C 285.23,185.527 287.73,184.86 290,183.5C 295.168,185.176 295.668,184.342 291.5,181C 292.579,180.044 293.745,179.211 295,178.5C 296.743,180.321 298.243,182.321 299.5,184.5C 297.807,186.027 295.973,187.36 294,188.5C 293.383,189.449 293.549,190.282 294.5,191C 293.552,191.483 292.552,191.649 291.5,191.5C 291.657,192.873 291.49,194.207 291,195.5C 288.448,192.806 287.281,193.473 287.5,197.5C 285.801,197.34 284.134,197.506 282.5,198C 283.337,199.011 283.67,200.178 283.5,201.5C 281.469,203.522 279.135,205.189 276.5,206.5C 273.67,206.694 271.004,207.361 268.5,208.5C 268.5,209.5 268.5,210.5 268.5,211.5C 267.33,213.279 265.664,214.279 263.5,214.5C 259.372,215.477 255.372,216.81 251.5,218.5C 251.5,219.833 251.5,221.167 251.5,222.5C 249.259,221.7 248.259,220.034 248.5,217.5C 245.671,217.675 244.004,216.342 243.5,213.5C 242.5,195.846 242.167,178.179 242.5,160.5C 242.666,155.156 242.499,149.823 242,144.5C 240.676,141.756 238.509,140.423 235.5,140.5C 236.214,138.126 237.548,136.126 239.5,134.5C 239.333,133.833 239.167,133.167 239,132.5C 236.99,133.848 234.99,135.182 233,136.5C 231.278,136.389 231.112,135.889 232.5,135C 231.552,134.517 230.552,134.351 229.5,134.5C 230.201,132.092 231.201,129.758 232.5,127.5C 233.833,128.833 235.167,130.167 236.5,131.5C 238.321,130.272 239.321,128.606 239.5,126.5C 241.703,126.935 243.703,126.935 245.5,126.5C 247.011,127.502 248.678,128.169 250.5,128.5C 252.821,128.229 254.821,128.896 256.5,130.5C 259.044,129.265 259.044,128.099 256.5,127C 259.372,126.685 262.205,126.185 265,125.5C 266.584,125.988 267.751,126.988 268.5,128.5C 269.086,128.291 269.586,127.957 270,127.5C 271.11,129.037 272.61,129.703 274.5,129.5C 274.719,130.675 274.386,131.675 273.5,132.5C 271.146,133.06 268.813,133.727 266.5,134.5C 266.709,135.086 267.043,135.586 267.5,136C 265.52,137.825 263.187,138.659 260.5,138.5C 260.5,139.5 260.5,140.5 260.5,141.5C 258.517,141.157 257.183,141.824 256.5,143.5 Z"/></g>
<g><path style="opacity:0.314" fill="#97add5" d="M 282.5,185.5 C 282.027,186.906 281.027,187.573 279.5,187.5C 279.973,186.094 280.973,185.427 282.5,185.5 Z"/></g>
<g><path style="opacity:0.192" fill="#afc9e9" d="M 204.5,214.5 C 206.027,214.427 207.027,215.094 207.5,216.5C 205.973,216.573 204.973,215.906 204.5,214.5 Z"/></g>
<g><path style="opacity:1" fill="#216fc5" d="M 241.5,160.5 C 241.833,160.5 242.167,160.5 242.5,160.5C 242.167,178.179 242.5,195.846 243.5,213.5C 244.004,216.342 245.671,217.675 248.5,217.5C 248.259,220.034 249.259,221.7 251.5,222.5C 251.466,225.199 252.133,227.699 253.5,230C 274.261,240.048 295.261,249.548 316.5,258.5C 313.421,258.26 310.421,258.593 307.5,259.5C 306.522,259.023 305.689,258.357 305,257.5C 304.667,257.833 304.333,258.167 304,258.5C 301.2,257.875 298.366,257.208 295.5,256.5C 295.113,255.28 294.28,254.613 293,254.5C 291.743,254.85 291.409,255.517 292,256.5C 294.219,258.197 296.386,259.864 298.5,261.5C 297.054,262.613 295.387,262.78 293.5,262C 294.696,261.346 294.696,260.846 293.5,260.5C 290.904,261.213 288.237,261.213 285.5,260.5C 283.597,260.204 281.93,259.537 280.5,258.5C 278.967,256.755 276.967,255.755 274.5,255.5C 271.303,254.548 268.303,253.215 265.5,251.5C 264.486,250.326 263.153,249.66 261.5,249.5C 261.167,249.5 260.833,249.5 260.5,249.5C 260.027,248.094 259.027,247.427 257.5,247.5C 253.657,246.35 249.99,244.683 246.5,242.5C 245.692,242.808 245.025,243.308 244.5,244C 247.804,250.114 250.804,256.281 253.5,262.5C 253.427,264.027 254.094,265.027 255.5,265.5C 260.968,274.77 265.635,284.436 269.5,294.5C 273.029,296.423 277.029,297.089 281.5,296.5C 284.28,296.807 286.78,297.807 289,299.5C 290.303,299.022 291.469,298.355 292.5,297.5C 292.5,298.5 292.5,299.5 292.5,300.5C 290.158,300.504 288.158,301.337 286.5,303C 288.595,303.556 288.762,304.056 287,304.5C 285.137,302.811 282.97,301.478 280.5,300.5C 281.025,299.808 281.692,299.308 282.5,299C 280.899,298.727 279.399,298.227 278,297.5C 275.387,299.272 272.887,301.272 270.5,303.5C 270.029,307.66 268.696,311.493 266.5,315C 264.61,316.112 262.61,316.946 260.5,317.5C 257.588,316.932 254.588,316.932 251.5,317.5C 251.037,314.518 250.704,311.518 250.5,308.5C 249.127,308.657 247.793,308.49 246.5,308C 245.588,305.795 244.255,303.962 242.5,302.5C 243.833,302.5 245.167,302.5 246.5,302.5C 249.58,302.748 252.58,303.414 255.5,304.5C 256.737,304.444 257.737,303.944 258.5,303C 251.962,291.534 246.295,279.701 241.5,267.5C 241.128,264.383 241.128,261.383 241.5,258.5C 239.711,256.967 237.711,255.967 235.5,255.5C 234.58,253.119 234.58,250.786 235.5,248.5C 233.392,247.056 231.059,246.39 228.5,246.5C 225.281,246.776 222.615,248.109 220.5,250.5C 218.533,250.739 216.699,250.406 215,249.5C 214.25,250.126 213.416,250.626 212.5,251C 213.38,252.356 213.714,253.856 213.5,255.5C 210.753,255.187 208.086,255.52 205.5,256.5C 206.853,257.524 207.52,258.857 207.5,260.5C 204.467,260.875 202.467,262.542 201.5,265.5C 196.834,269.933 192,274.267 187,278.5C 186.502,281.482 186.335,284.482 186.5,287.5C 185.167,286.833 183.833,286.167 182.5,285.5C 184.268,282.408 184.768,279.075 184,275.5C 182.303,276.364 181.137,277.697 180.5,279.5C 179.675,280.386 178.675,280.719 177.5,280.5C 177.12,277.208 178.453,274.875 181.5,273.5C 182.386,272.675 182.719,271.675 182.5,270.5C 179.722,270.022 177.722,271.022 176.5,273.5C 175.579,271.223 174.913,268.89 174.5,266.5C 175.583,266.539 176.583,266.873 177.5,267.5C 190.02,256.479 202.686,245.646 215.5,235C 214.439,233.151 213.773,231.151 213.5,229C 214.519,226.451 214.519,223.951 213.5,221.5C 210.871,220.533 208.871,218.867 207.5,216.5C 207.027,215.094 206.027,214.427 204.5,214.5C 197.91,210.247 191.91,205.247 186.5,199.5C 188.482,199.995 190.482,200.495 192.5,201C 193.509,203.172 195.176,204.338 197.5,204.5C 197.5,203.5 197.5,202.5 197.5,201.5C 199.912,201.756 201.579,200.756 202.5,198.5C 200.955,197.548 199.288,197.215 197.5,197.5C 197.539,199.359 196.706,200.692 195,201.5C 193.622,197.852 193.456,194.352 194.5,191C 193.418,189.67 192.751,188.17 192.5,186.5C 196.167,189.5 199.833,192.5 203.5,195.5C 203.525,198.179 204.858,199.512 207.5,199.5C 212.293,203.121 216.96,206.954 221.5,211C 223.345,212.128 225.345,212.628 227.5,212.5C 231.351,211.971 234.851,212.638 238,214.5C 239.302,213.915 240.469,213.249 241.5,212.5C 240.565,194.881 240.565,177.548 241.5,160.5 Z"/></g>
<g><path style="opacity:0.396" fill="#6f95d2" d="M 227.5,212.5 C 232.021,211.322 236.688,211.322 241.5,212.5C 240.469,213.249 239.302,213.915 238,214.5C 234.851,212.638 231.351,211.971 227.5,212.5 Z"/></g>
<g><path style="opacity:0.945" fill="#7597c7" d="M 203.5,195.5 C 205.167,196.5 206.5,197.833 207.5,199.5C 204.858,199.512 203.525,198.179 203.5,195.5 Z"/></g>
<g><path style="opacity:1" fill="#5883c0" d="M 263.5,214.5 C 259.847,217.662 255.847,220.328 251.5,222.5C 251.5,221.167 251.5,219.833 251.5,218.5C 255.372,216.81 259.372,215.477 263.5,214.5 Z"/></g>
<g><path style="opacity:1" fill="#0c6cc3" d="M 86.5,151.5 C 87.4992,222.665 87.8325,293.998 87.5,365.5C 85.6412,365.461 84.3079,366.294 83.5,368C 86.7111,369.153 90.0445,369.82 93.5,370C 88.7689,371.456 84.1022,372.289 79.5,372.5C 79.7093,373.086 80.0426,373.586 80.5,374C 82.5,374.333 84.5,374.667 86.5,375C 132.345,374.491 178.345,374.825 224.5,376C 197.407,377.163 170.241,377.996 143,378.5C 123.6,377.434 102.266,377.434 79,378.5C 78.2828,377.956 77.7828,377.289 77.5,376.5C 77.1373,369.525 77.6373,362.525 79,355.5C 79.6667,354.167 80.3333,354.167 81,355.5C 81.4955,357.473 81.6621,359.473 81.5,361.5C 80.5,361.5 79.5,361.5 78.5,361.5C 78.3398,363.199 78.5065,364.866 79,366.5C 80,365.167 81,365.167 82,366.5C 82.9435,365.737 83.4435,364.737 83.5,363.5C 84.0352,316.966 84.0352,270.466 83.5,224C 84,223.5 84.5,223 85,222.5C 85.3333,244.5 85.6667,266.5 86,288.5C 86.5,242.835 86.6667,197.168 86.5,151.5 Z"/></g>
<g><path style="opacity:0.078" fill="#66a0dd" d="M 99.5,147.5 C 100.266,149.684 100.933,152.018 101.5,154.5C 100.504,218.125 100.17,281.792 100.5,345.5C 99.5009,279.669 99.1675,213.669 99.5,147.5 Z"/></g>
<g><path style="opacity:1" fill="#5e8cc1" d="M 83.5,130.5 C 80.512,131.882 77.512,133.548 74.5,135.5C 73.8918,182.353 73.5584,229.353 73.5,276.5C 72.8333,275.5 72.1667,274.5 71.5,273.5C 71.3333,227.499 71.5,181.499 72,135.5C 74.783,131.527 78.6164,129.861 83.5,130.5 Z"/></g>
<g><path style="opacity:0.757" fill="#1c589b" d="M 88.5,147.5 C 88.5,220.167 88.5,292.833 88.5,365.5C 88.1667,365.5 87.8333,365.5 87.5,365.5C 87.8325,293.998 87.4992,222.665 86.5,151.5C 86.1568,149.517 86.8235,148.183 88.5,147.5 Z"/></g>
<g><path style="opacity:0.141" fill="#a4c3ec" d="M 257.5,247.5 C 259.027,247.427 260.027,248.094 260.5,249.5C 258.973,249.573 257.973,248.906 257.5,247.5 Z"/></g>
<g><path style="opacity:0.098" fill="#a1c7ea" d="M 261.5,249.5 C 263.153,249.66 264.486,250.326 265.5,251.5C 263.62,251.771 262.287,251.104 261.5,249.5 Z"/></g>
<g><path style="opacity:0.084" fill="#c5efff" d="M 88.5,147.5 C 88.8333,147.5 89.1667,147.5 89.5,147.5C 89.5,220.167 89.5,292.833 89.5,365.5C 110.5,365.5 131.5,365.5 152.5,365.5C 131.673,366.497 110.673,366.831 89.5,366.5C 88.8333,366.5 88.5,366.167 88.5,365.5C 88.5,292.833 88.5,220.167 88.5,147.5 Z"/></g>
<g><path style="opacity:1" fill="#126dc7" d="M 347.5,251.5 C 352.252,253.917 355.585,257.583 357.5,262.5C 357.666,266.514 357.499,270.514 357,274.5C 356.853,277.11 356.019,279.444 354.5,281.5C 355.629,283.529 355.129,283.863 353,282.5C 352.505,284.473 352.338,286.473 352.5,288.5C 346.381,294.235 339.047,296.068 330.5,294C 329.956,293.283 329.289,292.783 328.5,292.5C 327.486,291.326 326.153,290.66 324.5,290.5C 323.833,290.5 323.167,290.5 322.5,290.5C 320.533,290.739 318.699,290.406 317,289.5C 315.937,287.084 315.104,284.584 314.5,282C 315.516,279.824 317.182,278.657 319.5,278.5C 319.033,276.289 318.033,274.289 316.5,272.5C 315.749,273.376 315.249,274.376 315,275.5C 314.764,273.236 314.264,271.069 313.5,269C 311.833,268.667 310.167,268.333 308.5,268C 309.167,267.333 309.833,266.667 310.5,266C 306.13,265.082 302.13,263.582 298.5,261.5C 296.386,259.864 294.219,258.197 292,256.5C 291.409,255.517 291.743,254.85 293,254.5C 294.28,254.613 295.113,255.28 295.5,256.5C 298.366,257.208 301.2,257.875 304,258.5C 304.333,258.167 304.667,257.833 305,257.5C 305.689,258.357 306.522,259.023 307.5,259.5C 310.421,258.593 313.421,258.26 316.5,258.5C 317.5,258.167 318.167,257.5 318.5,256.5C 320.484,255.844 322.484,255.178 324.5,254.5C 327.165,255.888 328.165,254.888 327.5,251.5C 329.199,251.66 330.866,251.494 332.5,251C 332.167,250.667 331.833,250.333 331.5,250C 334.986,248.54 336.819,246.04 337,242.5C 334.932,245.645 332.432,246.145 329.5,244C 332.745,241.052 336.412,240.219 340.5,241.5C 340.336,244.187 340.503,246.854 341,249.5C 342.519,251.913 344.686,252.579 347.5,251.5 Z"/></g>
<g><path style="opacity:1" fill="#507fc3" d="M 220.5,250.5 C 214.478,255.85 208.145,260.85 201.5,265.5C 202.467,262.542 204.467,260.875 207.5,260.5C 207.52,258.857 206.853,257.524 205.5,256.5C 208.086,255.52 210.753,255.187 213.5,255.5C 213.714,253.856 213.38,252.356 212.5,251C 213.416,250.626 214.25,250.126 215,249.5C 216.699,250.406 218.533,250.739 220.5,250.5 Z"/></g>
<g><path style="opacity:0.518" fill="#96b9dd" d="M 274.5,255.5 C 276.967,255.755 278.967,256.755 280.5,258.5C 278.033,258.245 276.033,257.245 274.5,255.5 Z"/></g>
<g><path style="opacity:1" fill="#507ec2" d="M 228.5,246.5 C 231.059,246.39 233.392,247.056 235.5,248.5C 234.58,250.786 234.58,253.119 235.5,255.5C 237.711,255.967 239.711,256.967 241.5,258.5C 241.128,261.383 241.128,264.383 241.5,267.5C 237.414,260.323 233.08,253.323 228.5,246.5 Z"/></g>
<g><path style="opacity:1" fill="#3e77c1" d="M 285.5,260.5 C 288.237,261.213 290.904,261.213 293.5,260.5C 294.696,260.846 294.696,261.346 293.5,262C 295.387,262.78 297.054,262.613 298.5,261.5C 302.13,263.582 306.13,265.082 310.5,266C 309.833,266.667 309.167,267.333 308.5,268C 310.167,268.333 311.833,268.667 313.5,269C 314.264,271.069 314.764,273.236 315,275.5C 315.249,274.376 315.749,273.376 316.5,272.5C 318.033,274.289 319.033,276.289 319.5,278.5C 317.182,278.657 315.516,279.824 314.5,282C 315.104,284.584 315.937,287.084 317,289.5C 318.699,290.406 320.533,290.739 322.5,290.5C 319.491,293.842 316.157,296.842 312.5,299.5C 312.5,297.833 312.5,296.167 312.5,294.5C 313.5,294.5 314.5,294.5 315.5,294.5C 316.244,291.05 314.91,289.384 311.5,289.5C 311.477,287.4 312.144,285.567 313.5,284C 313.167,283.5 312.833,283 312.5,282.5C 311.155,283.347 310.155,284.513 309.5,286C 307.846,286.608 306.179,287.108 304.5,287.5C 307.489,284.181 310.822,281.181 314.5,278.5C 312.945,276.057 312.278,273.39 312.5,270.5C 302.992,268.219 293.992,264.885 285.5,260.5 Z"/></g>
<g><path style="opacity:0.11" fill="#b5d7ec" d="M 253.5,262.5 C 254.906,262.973 255.573,263.973 255.5,265.5C 254.094,265.027 253.427,264.027 253.5,262.5 Z"/></g>
<g><path style="opacity:1" fill="#136dc7" d="M 171.5,265.5 C 172.791,265.263 173.791,265.596 174.5,266.5C 174.913,268.89 175.579,271.223 176.5,273.5C 177.722,271.022 179.722,270.022 182.5,270.5C 182.719,271.675 182.386,272.675 181.5,273.5C 178.453,274.875 177.12,277.208 177.5,280.5C 178.675,280.719 179.675,280.386 180.5,279.5C 181.137,277.697 182.303,276.364 184,275.5C 184.768,279.075 184.268,282.408 182.5,285.5C 181.859,286.482 181.193,287.482 180.5,288.5C 183.522,290.005 186.522,291.339 189.5,292.5C 189.664,295.187 189.497,297.854 189,300.5C 187.874,299.056 186.374,298.39 184.5,298.5C 182.162,299.337 179.828,300.17 177.5,301C 176.663,302.011 176.33,303.178 176.5,304.5C 173.979,304.56 171.646,303.894 169.5,302.5C 166.906,303.384 164.406,304.384 162,305.5C 160.289,305.561 158.956,304.894 158,303.5C 157.517,304.448 157.351,305.448 157.5,306.5C 155.833,306.5 154.167,306.5 152.5,306.5C 145.024,302.568 141.357,296.234 141.5,287.5C 141.516,277.796 145.85,270.796 154.5,266.5C 155.5,266.5 156.5,266.5 157.5,266.5C 157.5,267.5 157.5,268.5 157.5,269.5C 158.552,269.351 159.552,269.517 160.5,270C 160.167,270.333 159.833,270.667 159.5,271C 162.064,271.45 163.564,270.284 164,267.5C 164.965,272.023 167.465,273.69 171.5,272.5C 171.5,271.5 171.5,270.5 171.5,269.5C 169.5,269.5 167.5,269.5 165.5,269.5C 165.715,265.267 167.715,263.934 171.5,265.5 Z"/></g>
<g><path style="opacity:0.059" fill="#c7f0ff" d="M 407.5,149.5 C 408.209,148.596 409.209,148.263 410.5,148.5C 410.5,220.833 410.5,293.167 410.5,365.5C 410.158,366.338 409.492,366.672 408.5,366.5C 409.164,330.237 409.497,293.904 409.5,257.5C 409.5,221.16 408.833,185.16 407.5,149.5 Z"/></g>
<g><path style="opacity:1" fill="#648cc9" d="M 357.5,262.5 C 361.197,272.177 359.531,280.844 352.5,288.5C 352.338,286.473 352.505,284.473 353,282.5C 355.129,283.863 355.629,283.529 354.5,281.5C 356.019,279.444 356.853,277.11 357,274.5C 357.499,270.514 357.666,266.514 357.5,262.5 Z"/></g>
<g><path style="opacity:0.169" fill="#a8c8e3" d="M 324.5,290.5 C 326.153,290.66 327.486,291.326 328.5,292.5C 326.62,292.771 325.287,292.104 324.5,290.5 Z"/></g>
<g><path style="opacity:1" fill="#2370c5" d="M 182.5,285.5 C 183.833,286.167 185.167,286.833 186.5,287.5C 192.468,288.103 198.134,289.436 203.5,291.5C 206.35,293.795 209.683,295.295 213.5,296C 223.531,298.207 233.198,300.374 242.5,302.5C 244.255,303.962 245.588,305.795 246.5,308C 247.793,308.49 249.127,308.657 250.5,308.5C 250.704,311.518 251.037,314.518 251.5,317.5C 249.267,328.334 248.934,339.334 250.5,350.5C 251.379,346.846 252.213,343.179 253,339.5C 253.333,340.167 253.667,340.833 254,341.5C 258.094,337.755 258.594,333.422 255.5,328.5C 256.391,327.41 257.391,327.41 258.5,328.5C 258.833,328 259.167,327.5 259.5,327C 256.66,324.592 256.994,322.759 260.5,321.5C 262.341,323.512 263.341,325.845 263.5,328.5C 267.893,328.457 268.226,328.957 264.5,330C 265.074,331.919 265.407,333.753 265.5,335.5C 262.725,334.688 260.558,333.021 259,330.5C 258.715,339.51 259.048,348.51 260,357.5C 260.383,356.944 260.883,356.611 261.5,356.5C 262.167,356.5 262.833,356.5 263.5,356.5C 263.354,359.111 262.188,361.111 260,362.5C 258.383,361.464 258.216,360.297 259.5,359C 258.5,358.333 257.5,358.333 256.5,359C 255.341,362.32 253.675,365.32 251.5,368C 250.5,368.667 249.5,368.667 248.5,368C 246.554,362.47 244.388,362.636 242,368.5C 240.887,367.289 239.72,367.289 238.5,368.5C 237.614,367.675 237.281,366.675 237.5,365.5C 239.484,365.617 241.15,364.95 242.5,363.5C 243.325,359.878 243.825,356.211 244,352.5C 244.814,354.282 245.981,355.782 247.5,357C 246.686,362.179 248.519,363.346 253,360.5C 253.219,359.062 253.719,357.729 254.5,356.5C 255.086,356.709 255.586,357.043 256,357.5C 256.495,355.527 256.662,353.527 256.5,351.5C 254.833,351.5 253.167,351.5 251.5,351.5C 251.785,353.288 251.452,354.955 250.5,356.5C 249.582,353.515 248.248,350.848 246.5,348.5C 245.178,340.807 245.178,332.807 246.5,324.5C 245.169,323.978 244.169,322.144 243.5,319C 245.25,317.681 247.25,317.181 249.5,317.5C 249.5,316.5 249.5,315.5 249.5,314.5C 247.5,314.833 245.5,315.167 243.5,315.5C 243.5,314.167 243.5,312.833 243.5,311.5C 245.527,311.662 247.527,311.495 249.5,311C 247.056,310.196 245.222,308.696 244,306.5C 243.591,308.991 242.424,310.991 240.5,312.5C 241.246,313.736 241.579,315.07 241.5,316.5C 222.342,311.35 203.176,306.017 184,300.5C 181.888,301.608 180.054,303.108 178.5,305C 176.348,306.413 174.014,307.246 171.5,307.5C 169.214,307.595 167.214,308.262 165.5,309.5C 160.739,309.876 156.405,308.876 152.5,306.5C 154.167,306.5 155.833,306.5 157.5,306.5C 157.351,305.448 157.517,304.448 158,303.5C 158.956,304.894 160.289,305.561 162,305.5C 164.406,304.384 166.906,303.384 169.5,302.5C 171.646,303.894 173.979,304.56 176.5,304.5C 176.33,303.178 176.663,302.011 177.5,301C 179.828,300.17 182.162,299.337 184.5,298.5C 186.374,298.39 187.874,299.056 189,300.5C 189.497,297.854 189.664,295.187 189.5,292.5C 186.522,291.339 183.522,290.005 180.5,288.5C 181.193,287.482 181.859,286.482 182.5,285.5 Z"/></g>
<g><path style="opacity:1" fill="#5381bc" d="M 203.5,291.5 C 218.139,294.409 232.473,298.076 246.5,302.5C 245.167,302.5 243.833,302.5 242.5,302.5C 233.198,300.374 223.531,298.207 213.5,296C 209.683,295.295 206.35,293.795 203.5,291.5 Z"/></g>
<g><path style="opacity:0.227" fill="#8eb0e1" d="M 269.5,294.5 C 273.605,295.109 277.605,295.775 281.5,296.5C 277.029,297.089 273.029,296.423 269.5,294.5 Z"/></g>
<g><path style="opacity:0.471" fill="#7ba4cf" d="M 298.5,292.5 C 297.089,294.914 295.089,296.581 292.5,297.5C 293.911,295.086 295.911,293.419 298.5,292.5 Z"/></g>
<g><path style="opacity:1" fill="#166dc7" d="M 312.5,299.5 C 307.543,303.446 302.543,307.446 297.5,311.5C 296.767,315.204 296.1,318.871 295.5,322.5C 291.251,323.969 289.251,326.969 289.5,331.5C 285.254,330.761 282.587,332.427 281.5,336.5C 276.891,337.026 272.557,336.359 268.5,334.5C 267.583,335.127 266.583,335.461 265.5,335.5C 265.407,333.753 265.074,331.919 264.5,330C 268.226,328.957 267.893,328.457 263.5,328.5C 263.341,325.845 262.341,323.512 260.5,321.5C 256.994,322.759 256.66,324.592 259.5,327C 259.167,327.5 258.833,328 258.5,328.5C 257.391,327.41 256.391,327.41 255.5,328.5C 258.594,333.422 258.094,337.755 254,341.5C 253.667,340.833 253.333,340.167 253,339.5C 252.213,343.179 251.379,346.846 250.5,350.5C 248.934,339.334 249.267,328.334 251.5,317.5C 254.588,316.932 257.588,316.932 260.5,317.5C 262.61,316.946 264.61,316.112 266.5,315C 268.696,311.493 270.029,307.66 270.5,303.5C 272.887,301.272 275.387,299.272 278,297.5C 279.399,298.227 280.899,298.727 282.5,299C 281.692,299.308 281.025,299.808 280.5,300.5C 282.97,301.478 285.137,302.811 287,304.5C 288.762,304.056 288.595,303.556 286.5,303C 288.158,301.337 290.158,300.504 292.5,300.5C 292.5,299.5 292.5,298.5 292.5,297.5C 295.089,296.581 297.089,294.914 298.5,292.5C 299.891,290.11 301.891,288.443 304.5,287.5C 306.179,287.108 307.846,286.608 309.5,286C 310.155,284.513 311.155,283.347 312.5,282.5C 312.833,283 313.167,283.5 313.5,284C 312.144,285.567 311.477,287.4 311.5,289.5C 314.91,289.384 316.244,291.05 315.5,294.5C 314.5,294.5 313.5,294.5 312.5,294.5C 312.5,296.167 312.5,297.833 312.5,299.5 Z"/></g>
<g><path style="opacity:1" fill="#2471c7" d="M 422.5,131.5 C 424.129,132.625 425.629,133.959 427,135.5C 427.5,156.164 427.667,176.831 427.5,197.5C 426.667,255.999 426.167,314.665 426,373.5C 425.76,375.852 424.927,377.852 423.5,379.5C 423.646,377.058 422.813,376.391 421,377.5C 420.5,377 420,376.5 419.5,376C 420.653,374.117 422.319,373.284 424.5,373.5C 424.662,371.473 424.495,369.473 424,367.5C 422.913,369.752 421.079,371.085 418.5,371.5C 418.054,374.086 416.554,375.42 414,375.5C 409.388,373.401 404.554,372.068 399.5,371.5C 399.167,370.833 398.833,370.167 398.5,369.5C 378.167,368.167 357.833,368.167 337.5,369.5C 336.485,370.681 335.319,371.681 334,372.5C 313.189,371.85 292.356,371.183 271.5,370.5C 274.447,369.679 277.447,369.179 280.5,369C 279.663,367.989 279.33,366.822 279.5,365.5C 280.5,365.5 281.5,365.5 282.5,365.5C 324.043,365.223 366.043,365.556 408.5,366.5C 409.492,366.672 410.158,366.338 410.5,365.5C 411.473,363.052 411.806,360.385 411.5,357.5C 413.467,357.739 415.301,357.406 417,356.5C 418.07,359.876 419.236,363.21 420.5,366.5C 421.324,363.215 421.824,359.882 422,356.5C 423.092,354.869 423.925,353.202 424.5,351.5C 423.178,351.67 422.011,351.337 421,350.5C 420.596,345.23 420.429,340.23 420.5,335.5C 419.671,340.467 419.171,345.467 419,350.5C 418.822,339.257 418.322,328.09 417.5,317C 418.137,314.757 418.47,312.424 418.5,310C 418.419,307.375 417.752,305.041 416.5,303C 416.864,298.02 417.198,292.854 417.5,287.5C 418.833,287.5 420.167,287.5 421.5,287.5C 421.5,282.167 421.5,276.833 421.5,271.5C 420.167,271.5 418.833,271.5 417.5,271.5C 417.5,266.167 417.5,260.833 417.5,255.5C 418.833,255.5 420.167,255.5 421.5,255.5C 420.403,216.925 420.403,178.259 421.5,139.5C 422.5,139.5 423.5,139.5 424.5,139.5C 424.416,136.673 423.75,134.006 422.5,131.5 Z"/></g>
<g><path style="opacity:0.082" fill="#74b0d7" d="M 71.5,273.5 C 72.1667,274.5 72.8333,275.5 73.5,276.5C 72.8432,299.265 72.1766,321.931 71.5,344.5C 71.5,320.833 71.5,297.167 71.5,273.5 Z"/></g>
<g><path style="opacity:0.22" fill="#aecff3" d="M 171.5,307.5 C 169.898,309.074 167.898,309.741 165.5,309.5C 167.214,308.262 169.214,307.595 171.5,307.5 Z"/></g>
<g><path style="opacity:1" fill="#5b83c3" d="M 295.5,322.5 C 293.833,330.167 289.167,334.833 281.5,336.5C 282.587,332.427 285.254,330.761 289.5,331.5C 289.251,326.969 291.251,323.969 295.5,322.5 Z"/></g>
<g><path style="opacity:0.141" fill="#a2cefe" d="M 116.5,327.5 C 116.833,327.5 117.167,327.5 117.5,327.5C 117.5,329.5 117.5,331.5 117.5,333.5C 131.344,333.171 145.01,333.504 158.5,334.5C 144.5,334.5 130.5,334.5 116.5,334.5C 116.5,332.167 116.5,329.833 116.5,327.5 Z"/></g>
<g><path style="opacity:0.246" fill="#a7cffd" d="M 381.5,329.5 C 381.5,331.167 381.5,332.833 381.5,334.5C 366.833,334.5 352.167,334.5 337.5,334.5C 351.657,333.504 365.99,333.171 380.5,333.5C 380.232,331.901 380.566,330.568 381.5,329.5 Z"/></g>
<g><path style="opacity:0.62" fill="#5a8bc6" d="M 281.5,336.5 C 277.019,337.648 272.352,337.815 267.5,337C 266.584,336.722 265.918,336.222 265.5,335.5C 266.583,335.461 267.583,335.127 268.5,334.5C 272.557,336.359 276.891,337.026 281.5,336.5 Z"/></g>
<g><path style="opacity:1" fill="#266fc0" d="M 337.5,334.5 C 352.167,334.5 366.833,334.5 381.5,334.5C 363.861,336.323 345.861,337.156 327.5,337C 330.633,337.393 333.633,338.226 336.5,339.5C 335.652,340.991 334.319,341.658 332.5,341.5C 327.113,340.546 321.78,339.713 316.5,339C 317.423,341.041 317.756,343.208 317.5,345.5C 310.992,343.918 304.326,343.085 297.5,343C 298.5,343.333 299.5,343.667 300.5,344C 298.624,345.017 296.624,345.851 294.5,346.5C 296.833,347.167 299.167,347.833 301.5,348.5C 300.05,349.85 299.383,351.516 299.5,353.5C 303.463,354.44 307.463,354.607 311.5,354C 310.289,353.107 310.289,352.274 311.5,351.5C 315.108,352.593 318.775,352.76 322.5,352C 320.131,351.464 318.131,350.297 316.5,348.5C 318.333,345.71 319.333,346.043 319.5,349.5C 325.134,350.427 330.801,351.093 336.5,351.5C 325.585,353.247 314.585,355.247 303.5,357.5C 302.5,357.5 301.5,357.5 300.5,357.5C 300.918,356.778 301.584,356.278 302.5,356C 297.682,354.131 292.682,353.131 287.5,353C 288.949,351.883 290.616,351.216 292.5,351C 293.337,349.989 293.67,348.822 293.5,347.5C 290.336,347.558 287.336,348.224 284.5,349.5C 284.5,350.5 284.5,351.5 284.5,352.5C 278.786,349.509 273.786,350.509 269.5,355.5C 272.016,359.815 271.35,360.315 267.5,357C 266.207,356.51 264.873,356.343 263.5,356.5C 262.833,356.5 262.167,356.5 261.5,356.5C 284.816,342.996 310.149,335.663 337.5,334.5 Z"/></g>
<g><path style="opacity:1" fill="#4176bb" d="M 199.5,358.5 C 186.513,355.506 173.513,353.172 160.5,351.5C 168.689,351.715 176.689,351.215 184.5,350C 185.939,350.991 186.939,352.324 187.5,354C 190.099,354.769 192.599,354.602 195,353.5C 195.743,355.932 197.243,357.599 199.5,358.5 Z"/></g>
<g><path style="opacity:0.996" fill="#5483c1" d="M 300.5,357.5 C 301.5,357.5 302.5,357.5 303.5,357.5C 296.43,359.749 289.43,362.416 282.5,365.5C 282.34,363.801 282.506,362.134 283,360.5C 283.739,361.574 284.739,362.241 286,362.5C 290.425,359.617 295.259,357.951 300.5,357.5 Z"/></g>
<g><path style="opacity:1" fill="#106cc7" d="M 263.5,356.5 C 264.873,356.343 266.207,356.51 267.5,357C 271.35,360.315 272.016,359.815 269.5,355.5C 273.786,350.509 278.786,349.509 284.5,352.5C 284.5,351.5 284.5,350.5 284.5,349.5C 287.336,348.224 290.336,347.558 293.5,347.5C 293.67,348.822 293.337,349.989 292.5,351C 290.616,351.216 288.949,351.883 287.5,353C 292.682,353.131 297.682,354.131 302.5,356C 301.584,356.278 300.918,356.778 300.5,357.5C 295.259,357.951 290.425,359.617 286,362.5C 284.739,362.241 283.739,361.574 283,360.5C 282.506,362.134 282.34,363.801 282.5,365.5C 281.5,365.5 280.5,365.5 279.5,365.5C 279.33,366.822 279.663,367.989 280.5,369C 277.447,369.179 274.447,369.679 271.5,370.5C 292.356,371.183 313.189,371.85 334,372.5C 335.319,371.681 336.485,370.681 337.5,369.5C 357.833,368.167 378.167,368.167 398.5,369.5C 398.833,370.167 399.167,370.833 399.5,371.5C 404.554,372.068 409.388,373.401 414,375.5C 416.554,375.42 418.054,374.086 418.5,371.5C 421.079,371.085 422.913,369.752 424,367.5C 424.495,369.473 424.662,371.473 424.5,373.5C 422.319,373.284 420.653,374.117 419.5,376C 420,376.5 420.5,377 421,377.5C 422.813,376.391 423.646,377.058 423.5,379.5C 421.447,379.402 419.78,380.069 418.5,381.5C 370.664,381.168 322.997,381.501 275.5,382.5C 272.861,386.473 269.527,389.806 265.5,392.5C 263.669,393.052 262.003,393.052 260.5,392.5C 259.713,393.242 259.047,394.075 258.5,395C 251.039,395.963 243.705,395.463 236.5,393.5C 235.167,391.833 235.167,390.167 236.5,388.5C 235.675,387.614 234.675,387.281 233.5,387.5C 233.785,385.712 233.452,384.045 232.5,382.5C 231.614,383.325 231.281,384.325 231.5,385.5C 228.224,385.856 225.557,384.856 223.5,382.5C 223.5,381.167 222.833,380.5 221.5,380.5C 222.868,379.694 224.201,378.694 225.5,377.5C 225.896,373.737 226.896,370.403 228.5,367.5C 230.592,367.439 232.092,366.439 233,364.5C 233.414,364.957 233.914,365.291 234.5,365.5C 235.262,364.372 235.929,363.205 236.5,362C 239.525,361.846 241.191,360.346 241.5,357.5C 240.984,343.513 240.984,329.847 241.5,316.5C 241.579,315.07 241.246,313.736 240.5,312.5C 242.424,310.991 243.591,308.991 244,306.5C 245.222,308.696 247.056,310.196 249.5,311C 247.527,311.495 245.527,311.662 243.5,311.5C 243.5,312.833 243.5,314.167 243.5,315.5C 245.5,315.167 247.5,314.833 249.5,314.5C 249.5,315.5 249.5,316.5 249.5,317.5C 247.25,317.181 245.25,317.681 243.5,319C 244.169,322.144 245.169,323.978 246.5,324.5C 245.178,332.807 245.178,340.807 246.5,348.5C 248.248,350.848 249.582,353.515 250.5,356.5C 251.452,354.955 251.785,353.288 251.5,351.5C 253.167,351.5 254.833,351.5 256.5,351.5C 256.662,353.527 256.495,355.527 256,357.5C 255.586,357.043 255.086,356.709 254.5,356.5C 253.719,357.729 253.219,359.062 253,360.5C 248.519,363.346 246.686,362.179 247.5,357C 245.981,355.782 244.814,354.282 244,352.5C 243.825,356.211 243.325,359.878 242.5,363.5C 241.15,364.95 239.484,365.617 237.5,365.5C 237.281,366.675 237.614,367.675 238.5,368.5C 239.72,367.289 240.887,367.289 242,368.5C 244.388,362.636 246.554,362.47 248.5,368C 249.5,368.667 250.5,368.667 251.5,368C 253.675,365.32 255.341,362.32 256.5,359C 257.5,358.333 258.5,358.333 259.5,359C 258.216,360.297 258.383,361.464 260,362.5C 262.188,361.111 263.354,359.111 263.5,356.5 Z"/></g>
<g><path style="opacity:1" fill="#0a6cc9" d="M 228.5,367.5 C 226.896,370.403 225.896,373.737 225.5,377.5C 224.201,378.694 222.868,379.694 221.5,380.5C 172.975,380.777 124.642,380.444 76.5,379.5C 74.8834,376.924 75.2167,375.924 77.5,376.5C 77.7828,377.289 78.2828,377.956 79,378.5C 102.266,377.434 123.6,377.434 143,378.5C 170.241,377.996 197.407,377.163 224.5,376C 178.345,374.825 132.345,374.491 86.5,375C 84.5,374.667 82.5,374.333 80.5,374C 80.0426,373.586 79.7093,373.086 79.5,372.5C 84.1022,372.289 88.7689,371.456 93.5,370C 90.0445,369.82 86.7111,369.153 83.5,368C 84.3079,366.294 85.6412,365.461 87.5,365.5C 87.8333,365.5 88.1667,365.5 88.5,365.5C 88.5,366.167 88.8333,366.5 89.5,366.5C 101.455,368.48 113.788,369.146 126.5,368.5C 126.458,370.849 127.625,372.182 130,372.5C 139.799,371.703 149.632,371.203 159.5,371C 160.308,370.692 160.975,370.192 161.5,369.5C 165.667,369.167 169.833,368.833 174,368.5C 178.589,368.536 182.923,369.202 187,370.5C 190.064,369.217 193.397,368.55 197,368.5C 203.421,368.978 209.588,369.978 215.5,371.5C 218.167,371.167 220.833,370.833 223.5,370.5C 221.915,368.913 220.248,368.08 218.5,368C 218.833,367.667 219.167,367.333 219.5,367C 218.027,366.29 217.36,365.124 217.5,363.5C 221.842,363.278 225.509,364.611 228.5,367.5 Z"/></g>
<g><path style="opacity:1" fill="#588fc6" d="M 427.5,197.5 C 427.667,257.834 427.5,318.168 427,378.5C 425.457,380.378 423.624,381.878 421.5,383C 417.514,383.499 413.514,383.666 409.5,383.5C 413.761,383.009 416.761,382.342 418.5,381.5C 419.78,380.069 421.447,379.402 423.5,379.5C 424.927,377.852 425.76,375.852 426,373.5C 426.167,314.665 426.667,255.999 427.5,197.5 Z"/></g>
<g><path style="opacity:0.85" fill="#4b74ba" d="M 275.5,382.5 C 322.997,381.501 370.664,381.168 418.5,381.5C 416.761,382.342 413.761,383.009 409.5,383.5C 364.814,383.807 320.147,383.474 275.5,382.5 Z"/></g>
<g><path style="opacity:1" fill="#3e76bf" d="M 222.5,382.5 C 222.833,382.5 223.167,382.5 223.5,382.5C 225.557,384.856 228.224,385.856 231.5,385.5C 231.281,384.325 231.614,383.325 232.5,382.5C 233.452,384.045 233.785,385.712 233.5,387.5C 234.675,387.281 235.675,387.614 236.5,388.5C 235.167,390.167 235.167,391.833 236.5,393.5C 243.705,395.463 251.039,395.963 258.5,395C 259.047,394.075 259.713,393.242 260.5,392.5C 262.003,393.052 263.669,393.052 265.5,392.5C 248.24,401.931 233.907,398.597 222.5,382.5 Z"/></g>
</svg>
